<svg width="100" height="171" viewBox="0 0 173 171" fill="none" xmlns="http://www.w3.org/2000/svg">
<path d="M165 30L87.2336 8L8 30" stroke="#21BBEC" stroke-width="15" stroke-linecap="round"/>
<line x1="4.5" y1="-4.5" x2="74.8965" y2="-2.2137" transform="matrix(0.471902 0.881651 -0.931517 0.363697 44.8188 45.5)" stroke="#21BBEC" stroke-width="9" stroke-linecap="round"/>
<line x1="54.3457" y1="52.5" x2="51.8121" y2="141.5" stroke="#21BBEC" stroke-width="19" stroke-linecap="round"/>
<line x1="9.5" y1="-9.5" x2="69.8965" y2="-7.2137" transform="matrix(0.471902 0.881651 -0.931517 0.363697 43.1297 47.5)" stroke="#21BBEC" stroke-width="19" stroke-linecap="round"/>
<line x1="5.5" y1="-5.5" x2="73.8965" y2="-3.2137" transform="matrix(-0.471902 0.881651 0.931517 0.363697 128.919 46.5)" stroke="#21BBEC" stroke-width="11" stroke-linecap="round"/>
<line x1="9.5" y1="-9.5" x2="98.5" y2="-6.96635" transform="matrix(5.11797e-08 1 1 -3.73329e-08 127.892 43)" stroke="#21BBEC" stroke-width="19" stroke-linecap="round"/>
<line x1="9.5" y1="-9.5" x2="69.8965" y2="-7.2137" transform="matrix(-0.471902 0.881651 0.931517 0.363697 130.608 48.5)" stroke="#21BBEC" stroke-width="19" stroke-linecap="round"/>
<path d="M139.648 60.1591V54.6591H150.648V60.1591H139.648ZM150.648 165C150.648 168.038 148.185 170.5 145.148 170.5C142.11 170.5 139.648 168.038 139.648 165H150.648ZM150.648 60.1591V165H139.648V60.1591H150.648Z" fill="#21BBEC"/>
<path d="M152.648 60.1591V54.6591H163.648V60.1591H152.648ZM163.648 165C163.648 168.038 161.185 170.5 158.148 170.5C155.11 170.5 152.648 168.038 152.648 165H163.648ZM163.648 60.1591V165H152.648V60.1591H163.648Z" fill="#21BBEC"/>
<path d="M33.5 60.1591V54.6591H22.5V60.1591H33.5ZM22.5 165C22.5 168.038 24.9624 170.5 28 170.5C31.0376 170.5 33.5 168.038 33.5 165H22.5ZM22.5 60.1591L22.5 165H33.5L33.5 60.1591H22.5Z" fill="#21BBEC"/>
<path d="M20.5 60.1591V54.6591H9.5V60.1591H20.5ZM9.5 165C9.5 168.038 11.9624 170.5 15 170.5C18.0376 170.5 20.5 168.038 20.5 165H9.5ZM9.5 60.1591L9.5 165H20.5L20.5 60.1591H9.5Z" fill="#21BBEC"/>
</svg>
